<svg xmlns="http://www.w3.org/2000/svg" xml:space="preserve" viewBox="0 0 414 215">
  <path fill="#e25a1c" fill-rule="evenodd"
        d="M377.72 108.39500405c-.35777-.76475-.5187-1.14912-.71155-1.5162-5.1737-9.842-10.3341-19.684-15.561-29.526-.52402-.98686-.45752-1.5694.25935-2.4206 8.2327-9.6159 16.359-19.285 24.605-28.861.29127-.33782.55062-.69559.65968-1.29808-2.394.62377-4.788 1.24089-7.1953 1.8753-9.9351 2.6334-19.95 5.2535-29.792 7.9268-.92435.24871-1.3433-.02128-1.8088-.79002-5.6392-9.4297-11.3183-18.886-17.024-28.196-.29127-.48811-.60914-.96159-1.23158-1.3699-.45752 2.5137-.92036 5.0141-1.3699 7.5278-1.5827 8.8711-3.1654 17.689-4.7348 26.6-.17157.95627-.40565 1.9152-.48811 2.8728-.07847.91504-.55062 1.25286-1.3832 1.5162-11.7173 3.6841-23.408 7.3948-35.112 11.1055-.51338.16093-1.01745.37373-1.5694.87248 9.576 3.8038 19.152 7.6076 28.861 11.4779-.35378.28063-.58786.49875-.84721.665-5.985 3.8703-11.9833 7.7406-17.955 11.6242-.71687.46816-1.28345.53466-2.0881.17157-7.1554-3.2186-14.364-6.384-21.546-9.576-3.2186-1.4364-6.1047-3.3383-8.3524-6.1047-5.0939-6.2244-4.0831-13.3 2.6999-17.689 2.2211-1.4231 4.7481-2.4738 7.2618-3.2984 11.4779-3.7373 23.009-7.3416 34.447-10.9592.96558-.30723 1.4098-.73815 1.596-1.7822 1.5428-8.8844 3.1255-17.822 4.7348-26.6.85652-4.7481 1.30872-9.6026 3.6176-13.965.88445-1.6758 1.9418-3.3117 3.2186-4.7082 4.5752-5.0806 10.9459-5.2668 15.827-.43624 1.6359 1.6359 3.0324 3.5511 4.2427 5.5328 5.32 8.6849 10.5602 17.423 15.827 26.201.61845 1.03341 1.17439 1.24089 2.3142.94031 12.8345-3.4447 25.669-6.8362 38.57-10.2277 2.66-.70091 5.3333-.95494 8.0598-.44555 5.9185 1.10656 8.512 5.6126 6.5037 11.3449-.90839 2.6068-2.4871 4.8013-4.256 6.8894-8.9642 10.5469-17.955 21.147-26.866 31.654-.73283.86184-.74746 1.4763-.2394 2.4472 5.3732 10.1213 10.6932 20.216 16.093 30.457 1.27813 2.4206 2.261 4.9476 2.2876 7.7273.06251 6.3308-4.5752 11.5178-10.8661 12.4488-3.5245.51471-6.7963-.23807-10.108-1.25685-8.0465-2.4871-16.093-4.9343-24.206-7.3682-.74879-.22344-1.03474-.52003-1.16907-1.32468-.92568-5.6791-1.9418-11.3449-2.926-17.024-.02527-.15561.02128-.32186.04788-.67032 9.1903 2.5403 18.354 5.0407 27.797 7.6608"/>
    <path fill="#3c3a3e" fill-rule="evenodd"
          d="M361.76 191.52000405c-7.2618-.01064-14.497-.04655-21.812-.01463-.96159 0-1.5029-.27531-2.0349-1.09193-8.5918-13.0872-17.29-26.201-25.802-39.235-.27531-.41496-.56658-.81529-1.05469-1.5162-1.8487 14.098-3.6708 27.93-5.4929 41.762h-19.019c.22344-1.8487.42161-3.6442.65569-5.4264 1.8487-14.231 3.724-28.329 5.586-42.56 1.7822-13.566 3.5511-27.132 5.3599-40.698.05187-.40033.32186-.91504.64904-1.12784 6.5436-4.2693 13.1138-8.4987 19.684-12.7281.09443-.06251.22876-.06783.56658-.16625-1.9817 15.162-3.9501 30.191-5.9318 45.22.07847.05187.15561.10906.23408.16093 10.3075-11.4114 20.615-22.876 31.122-34.447.30191 1.7556.56658 3.2585.82593 4.7614.73815 4.2959 1.4497 8.6184 2.2344 12.9143.16093.86716-.07315 1.3965-.64904 2.0083-6.6633 6.9692-13.3 13.965-19.95 21.014-.29127.30723-.56658.62377-.89908.98819.2128.33649.39501.665.60781.96558 11.4513 16.093 22.876 32.186 34.314 48.279.20748.29127.50806.52003.76342.77938v.25403m-224.72744-42.65576c-.29127-1.4763-.49875-3.6575-1.15843-5.6924-3.192-9.8287-13.2601-15.162-23.674-12.7813-11.4513 2.66-19.684 11.6641-20.748 23.408-.8778 8.645 3.7772 17.024 12.4222 20.083 6.9692 2.5137 13.699 1.463 19.95-2.2743 8.2593-4.9476 12.7281-12.3025 13.3-22.743zm-50.274 36.575c-.56126 4.2294-1.10124 8.2061-1.6226 12.1961-.69559 5.2934-1.3965 10.6001-2.0615 15.96-.07714.61845-.26467.89376-.92967.88844-5.2269-.01995-10.4538-.01463-15.694-.02527-.1197 0-.2394-.06251-.52003-.14497.31654-2.5004.62377-5.0141.95095-7.5145 1.15311-8.778 2.3009-17.556 3.4713-26.334 1.3433-10.0548 2.394-20.083 4.1097-30.058 3.0324-17.689 18.088-32.851 35.644-36.708 10.2011-2.2078 19.95-1.18503 28.861 4.5619 8.8844 5.719 13.965 14.098 15.162 24.472 1.6492 14.763-3.7905 26.999-14.231 37.24-6.8894 6.6633-15.162 10.8927-24.605 12.3291-9.8021 1.4763-19.019-.15561-27.265-5.9318-.30191-.2128-.62909-.399-1.14779-.72618m-8.90036-83.99482c-5.852 4.3624-11.5045 8.5652-17.157 12.7813-.91371-1.4364-1.729-2.8728-2.6866-4.2161-2.4605-3.4447-5.5195-6.0116-9.9617-6.3175-3.6974-.26068-6.8628.95494-9.3765 3.6841-2.2477 2.4339-2.5403 5.9052-.44156 8.6583 2.3142 3.0324 4.8412 5.9052 7.4347 8.7115 4.2959 4.655 8.778 9.1238 13.034 13.832 3.8703 4.256 6.9692 9.0174 7.9268 14.896 1.13848 6.916-.24339 13.433-3.5112 19.551-6.0515 11.2385-15.561 17.822-28.196 19.817-5.5594.89775-11.0922.72219-16.492-.87381-7.1953-2.1147-12.2094-6.8362-15.428-13.433-1.13715-2.3541-2.0083-4.8412-3.0324-7.3682 6.2909-3.3649 12.4222-6.65 18.62-9.9617.2128.51471.36841.94563.56658 1.3566 1.06001 2.1147 1.9285 4.3624 3.2319 6.3175 3.8969 5.7855 10.1745 7.5411 16.492 4.6816 1.6359-.73815 3.2186-1.7689 4.5619-2.9659 4.0964-3.6442 4.8678-8.7248 1.8354-13.3-1.7423-2.6334-3.9235-5.0008-6.0515-7.3549-5.0806-5.6392-10.374-11.1055-15.295-16.891-3.4181-3.9634-5.7456-8.5652-6.4904-13.832-.80465-5.7988.35378-11.2518 3.3649-16.093 7.4879-12.1163 18.354-18.354 32.718-17.955 8.2061.29659 14.763 4.1363 19.817 10.5203 1.5029 1.8886 2.9127 3.8437 4.4422 5.8919m138.92648 64.36801c-.95627 7.3017-1.862 14.231-2.793 21.147-.05187.35378-.32718.83125-.62377.96691-14.231 6.5702-32.851 5.6525-44.422-7.5677-6.251-7.1022-8.8711-15.561-8.4854-24.871.90839-21.679 18.886-40.698 40.432-43.358 12.5685-1.5428 23.541 1.8487 32.053 11.6242 5.7988 6.65 8.4854 14.63 8.0864 23.408-.25935 5.7988-1.16907 11.5577-1.8886 17.29-1.0241 8.1662-2.1413 16.359-3.2186 24.472-.04123.28462-.09842.57589-.16625.94563h-16.891c.22344-1.8753.43092-3.7107.67032-5.5461 1.22626-9.4297 2.5802-18.886 3.6575-28.329.67032-5.8786.24871-11.7173-2.4472-17.157-2.8595-5.7855-7.6475-8.8578-13.965-9.5228-13.0606-1.3832-25.536 7.6874-28.196 20.482-1.8354 8.4854 1.06001 16.625 7.8204 21.147 6.5835 4.3757 13.566 4.389 20.748 1.5561 3.6442-1.4364 6.7298-3.724 9.6824-6.7963m71.7668-51.36194c-.77406 5.8786-1.5428 11.6641-2.3142 17.556-3.591 0-7.1022-.01995-10.6134.00532-2.8462.02128-5.4397 1.862-6.3042 4.522-.3325 1.03873-.45619 2.1546-.60249 3.2452-1.7822 13.566-3.5511 26.999-5.32 40.432-.44688 3.4048-.8778 6.8096-1.32468 10.2676h-17.689c.32718-2.5935.6384-5.1072.96558-7.6209 1.14779-8.7514 2.3009-17.556 3.458-26.201 1.00282-7.5677 1.9019-15.162 3.0856-22.743 1.5827-10.108 11.6375-19.152 21.812-19.551 4.8678-.2128 9.7489-.03591 14.763-.03591"/>
    <path fill="#3c3a3e"
          d="M383.04 191.52000405v-7.448h-.04123l-2.926 7.448h-.92967l-2.926-7.448h-.04655v7.448h-1.463v-8.9243h2.2743l2.66 6.783 2.6201-6.783h2.261v8.9243zm-12.9542-7.7273v7.7273h-1.463v-7.7273h-2.793v-1.19567h7.0623v1.19567h-2.793m-268.6201-94.5497h4.3757l-1.03474-6.6234zm5.0673 4.2826h-7.2751l-2.3142 4.5353h-5.1604l11.3715-21.28h4.9742l3.8703 21.28h-4.7747l-.68628-4.5353m26.04938-12.3956h-2.5935l-.87248 4.9077h2.5935c1.5694 0 2.8063-1.02809 2.8063-2.9659 0-1.28345-.77938-1.9418-1.9418-1.9418zm-6.2776-4.2826h6.8096c3.5644 0 6.0515 2.128 6.0515 5.7722 0 4.6018-3.2452 7.6874-7.8736 7.6874h-2.9393l-1.3832 7.7805h-4.4422l3.7506-21.28m27.9832 12.4355h4.3757l-1.03341-6.6234zm5.054 4.2826h-7.2751l-2.3142 4.5353h-5.1604l11.3715-21.28h4.9742l3.8703 21.28h-4.7747l-.68628-4.5353m28.19068 3.8304c-1.5029.68628-3.1521 1.09592-4.8146 1.09592-5.6259 0-9.1504-4.2161-9.1504-9.4962 0-6.7564 5.6791-12.4355 12.4355-12.4355 1.6891 0 3.2186.40565 4.4688 1.0906l-.62377 5.0939c-.93499-1.03341-2.4472-1.7556-4.3092-1.7556-3.8703 0-7.315 3.4979-7.315 7.5544 0 3.0856 1.9418 5.5062 5.0008 5.5062 1.8753 0 3.6841-.72219 4.9077-1.7157l-.59185 5.054m27.92202-7.83902h-9.2435l-1.5029 8.5519h-4.4289l3.7506-21.28h4.4422l-1.4896 8.4056h9.2435l1.5029-8.4056h4.4422l-3.7506 21.28h-4.4422l1.4896-8.5519m15.9467 8.512 3.7506-21.28h11.7838l-.74879 4.2826h-7.3416l-.74879 4.123h6.7431l-.74879 4.2826h-6.7431l-.74879 4.2826h7.3416l-.74879 4.2826h-11.7838"/>
</svg>