<svg width="107" height="150" viewBox="0 0 107 150" fill="none" xmlns="http://www.w3.org/2000/svg">
<path d="M106.771 29.4785L97.0893 137.935L53.5708 150L10.1722 137.952L0.500977 29.4785H106.771Z" fill="#264DE4"/>
<path d="M88.8009 131.029L97.0743 38.3477H53.6359V140.778L88.8009 131.029Z" fill="#2965F1"/>
<path d="M22.672 78.5791L23.8644 91.8828H53.6359V78.5791H22.672Z" fill="#EBEBEB"/>
<path d="M53.6358 51.6519H53.5898H20.2761L21.4854 64.9559H53.6358V51.6519Z" fill="#EBEBEB"/>
<path d="M53.6359 126.972V113.131L53.5776 113.146L38.761 109.146L37.8138 98.5352H30.6141H24.4588L26.3227 119.424L53.5746 126.989L53.6359 126.972Z" fill="#EBEBEB"/>
<path d="M25.5108 0H41.6241V6.73828H32.2491V13.4766H41.6241V20.2148H25.5108V0Z" fill="black"/>
<path d="M44.8468 0H60.9601V5.85938H51.5851V7.03125H60.9601V20.5078H44.8468V14.3555H54.2218V13.1836H44.8468V0Z" fill="black"/>
<path d="M64.1827 0H80.296V5.85938H70.921V7.03125H80.296V20.5078H64.1827V14.3555H73.5577V13.1836H64.1827V0Z" fill="black"/>
<path d="M69.9721 91.8829L68.4278 109.137L53.5898 113.142V126.983L80.8635 119.424L81.0636 117.176L84.1898 82.1517L84.5144 78.5792L86.9162 51.6519H53.5898V64.9559H72.3363L71.1258 78.5792H53.5898V91.8829H69.9721Z" fill="white"/>
</svg>
