<svg width="150" height="150" viewBox="0 0 150 150" fill="none" xmlns="http://www.w3.org/2000/svg">
<path d="M150 0H0.00012207V150H150V0Z" fill="#512BD4"/>
<path d="M23.8841 95.1756C22.8235 95.1756 21.922 94.8223 21.1796 94.1154C20.4371 93.3904 20.0659 92.5295 20.0659 91.5328C20.0659 90.5177 20.4371 89.6479 21.1796 88.9229C21.922 88.1979 22.8235 87.8354 23.8841 87.8354C24.9624 87.8354 25.8728 88.1979 26.6152 88.9229C27.3753 89.6479 27.7554 90.5177 27.7554 91.5328C27.7554 92.5295 27.3753 93.3904 26.6152 94.1154C25.8728 94.8223 24.9624 95.1756 23.8841 95.1756Z" fill="white"/>
<path d="M67.221 93.9193H60.327L42.1641 65.265C41.7046 64.54 41.3243 63.7877 41.024 63.0084H40.8648C41.0062 63.8423 41.077 65.6275 41.077 68.364V93.9193H34.9783V54.9341H42.323L59.8763 82.9088C60.6187 84.069 61.096 84.8663 61.3082 85.3012H61.4141C61.2375 84.2683 61.149 82.5193 61.149 80.0541V54.9341H67.221V93.9193Z" fill="white"/>
<path d="M95.9812 94.5775H74.6365V55.5923H95.1329V61.0841H80.9473V72.1216H94.0194V77.586H80.9473V89.113H95.9812V94.5775Z" fill="white"/>
<path d="M126.316 61.0841H115.392V94.5775H109.081V61.0841H98.1832V55.5923H126.316V61.0841Z" fill="white"/>
</svg>
