<svg width="151" height="148" viewBox="0 0 151 148" fill="none" xmlns="http://www.w3.org/2000/svg">
<path fill-rule="evenodd" clip-rule="evenodd" d="M75.3125 0.285645C33.8052 0.285645 0.250488 34.0714 0.250488 75.8689C0.250488 109.28 21.7501 137.562 51.5758 147.571C55.3048 148.324 56.6707 145.945 56.6707 143.944C56.6707 142.192 56.5478 136.186 56.5478 129.928C35.6673 134.433 31.3192 120.918 31.3192 120.918C27.9636 112.158 22.9916 109.906 22.9916 109.906C16.1574 105.276 23.4894 105.276 23.4894 105.276C31.0703 105.777 35.0482 113.035 35.0482 113.035C41.7579 124.546 52.5699 121.294 56.9196 119.291C57.5403 114.411 59.5301 111.032 61.6427 109.155C44.989 107.403 27.4673 100.896 27.4673 71.8637C27.4673 63.6047 30.448 56.8475 35.1711 51.5923C34.4259 49.7157 31.8155 41.9557 35.9178 31.5697C35.9178 31.5697 42.2557 29.5671 56.5463 39.3281C62.6646 37.6736 68.9743 36.832 75.3125 36.8249C81.6504 36.8249 88.1112 37.7018 94.0773 39.3281C108.369 29.5671 114.707 31.5697 114.707 31.5697C118.81 41.9557 116.198 49.7157 115.452 51.5923C120.3 56.8475 123.158 63.6047 123.158 71.8637C123.158 100.896 105.636 107.277 88.8579 109.155C91.5928 111.533 93.9528 116.037 93.9528 123.17C93.9528 133.306 93.8299 141.441 93.8299 143.942C93.8299 145.945 95.1974 148.324 98.9248 147.573C128.751 137.56 150.25 109.28 150.25 75.8689C150.373 34.0714 116.695 0.285645 75.3125 0.285645Z" fill="black"/>
</svg>
