<svg xmlns="http://www.w3.org/2000/svg" fill="none" viewBox="0 0 299 313" width="299" height="313">
    <path fill="#FBCF26"
          d="M34.9206 229.896H15.7803v14.164h19.1403v-14.164Zm71.8074.004H86.5995v14.164h20.1285V229.9Zm71.803 0h-20.129v14.16h20.129V229.9Zm71.802.005h-20.128v14.159h20.128v-14.159ZM53.8611 258.2H38.8644v13.792h14.9967V258.2Zm71.8079 0H105.54v13.792h20.129V258.2Zm51.674 13.792h20.123V258.2h-20.123v13.792ZM249.15 258.2v13.792h11.443V258.2H249.15Zm-18.945 40.659h20.128v-12.726h-20.128v12.726Zm-107.702 0h56.028v-12.726h-56.028v12.726Zm-71.8021 0h20.1184v-12.726H50.7009v12.726Z"/>
    <path fill="#5A61FC"
          d="M284.397 215.764H14.5919c-1.9164 0-3.8142.338-5.58491.994-1.77068.657-3.37954 1.621-4.73466 2.835-1.35512 1.214-2.42992 2.656-3.16299 4.242-.733064 1.587-1.11003003 3.288-1.10933905 5.005v71.084c-5e-7 1.717.37750505 3.417 1.11094905 5.003.73344 1.586 1.80843 3.026 3.16355 4.24 1.35512 1.213 2.96379 2.176 4.7341 2.832 1.7703.656 3.6675.993 5.5833.992L284.397 313c3.87-.001 7.58-1.379 10.316-3.831 2.737-2.452 4.274-5.777 4.276-9.245V228.84c.001-1.717-.376-3.418-1.109-5.005-.734-1.586-1.808-3.028-3.163-4.242-1.356-1.214-2.964-2.178-4.735-2.835-1.771-.656-3.669-.994-5.585-.994Zm-54.192 14.141h20.128v14.155h-20.128v-14.155Zm3.17 28.295v13.792h-20.129V258.2h20.129Zm-39.069-28.295h20.129v14.159h-20.129v-14.159Zm3.16 28.295v13.792h-20.123V258.2h20.123Zm-39.064-28.3h20.129v14.16h-20.129V229.9Zm3.16 28.3v13.792h-20.118V258.2h20.118Zm-39.059-28.3h20.124v14.16h-20.124V229.9Zm3.166 28.3v13.792H105.54V258.2h20.129Zm-39.0695-28.3h20.1285v14.164H86.5995V229.9Zm3.1655 28.3v13.792H69.6414V258.2H89.765Zm-39.0641-28.304h20.1184v14.164H50.7009v-14.164ZM15.775 258.2h7.3143v13.792H15.775V258.2Zm19.1456 40.659H15.7697v-12.726h19.1509v12.726Zm0-54.795H15.7803V229.9h19.1403v14.164Zm3.9437 14.136h14.9968v13.792H38.8643V258.2Zm31.955 40.659H50.7009v-12.726h20.1184v12.726Zm35.9087 0H86.5995v-12.726h20.1285v12.726Zm71.803 0h-56.028v-12.726h56.028v12.726Zm35.904 0h-20.129v-12.726h20.129v12.726Zm35.898 0h-20.128v-12.726h20.128v12.726Zm10.259-26.867H249.15V258.2h11.442v13.792Zm22.622 26.867h-17.1v-12.726h17.1v12.726Zm.005-26.867h-6.846V258.2h6.846v13.792Zm.005-27.928h-17.11V229.91h17.11v14.154ZM251.243 0H34.726v202.218h216.522L251.243 0Zm-15.775 188.082H50.501V14.1358h184.972l-.005 173.9462Z"/>
    <path fill="#FBCF26"
          d="m131.448 119.787-35.0313-13.024v-8.194l35.0313-13.0426v9.8055l-21.291 7.3551 21.291 7.356v9.744Zm14.639-38.049h6.405l-11.343 41.856h-6.341l11.279-41.856Zm9.549 28.3 21.291-7.355-21.291-7.3558v-9.8055l35.031 13.0426v8.1937l-35.031 13.024v-9.744Z"/>
</svg>