<svg width="151" height="156" viewBox="0 0 151 156" fill="none" xmlns="http://www.w3.org/2000/svg">
<path d="M149.624 93.3132C148.723 90.5826 146.361 88.6808 143.307 88.2244C141.867 88.0095 140.217 88.1011 138.266 88.5034C134.864 89.2053 132.34 89.4725 130.498 89.5242C137.45 77.7861 143.104 64.4006 146.358 51.8003C151.621 31.4258 148.808 22.144 145.522 17.9457C136.825 6.83313 124.137 0.863356 108.83 0.680692C100.664 0.580843 93.4953 2.19311 89.7556 3.35252C86.2738 2.73816 82.5301 2.39515 78.602 2.33172C71.2384 2.21425 64.7324 3.81946 59.1732 7.11858C56.0955 6.0778 51.1559 4.61062 45.4516 3.67439C32.0355 1.47185 21.2225 3.18807 13.3133 8.77548C3.73605 15.5405 -0.703691 27.2945 0.117417 43.7108C0.378198 48.9229 3.29378 64.7812 7.88447 79.8207C10.5228 88.4653 13.3362 95.6438 16.2465 101.159C20.3738 108.979 24.79 113.585 29.7478 115.239C32.5265 116.164 37.5753 116.813 42.8855 112.39C43.5586 113.205 44.4567 114.015 45.6484 114.768C47.162 115.722 49.0127 116.502 50.8611 116.964C57.5222 118.63 63.7615 118.213 69.0846 115.879C69.1175 116.826 69.1428 117.73 69.1639 118.511C69.1992 119.778 69.2344 121.021 69.2808 122.182C69.5962 130.038 70.1307 136.145 71.7142 140.419C71.8011 140.654 71.918 141.012 72.0413 141.392C72.8313 143.811 74.1522 147.86 77.513 151.031C80.993 154.316 85.2025 155.323 89.0579 155.323C90.9914 155.323 92.8363 155.07 94.4544 154.723C100.222 153.487 106.773 151.604 111.511 144.856C115.992 138.478 118.17 128.87 118.564 113.733C118.615 113.305 118.662 112.896 118.707 112.506L118.801 111.706L119.856 111.799L120.128 111.818C126.003 112.085 133.186 110.84 137.598 108.79C141.084 107.173 152.254 101.275 149.624 93.3132Z" fill="black"/>
<path d="M139.678 94.7648C122.211 98.3682 121.01 92.4542 121.01 92.4542C139.452 65.0881 147.162 30.3507 140.509 21.8489C122.358 -1.34241 90.9382 9.62567 90.4137 9.90995L90.2451 9.94049C86.7939 9.22393 82.9321 8.79752 78.591 8.72645C70.6877 8.59723 64.6921 10.7986 60.1425 14.2487C60.1425 14.2487 4.0922 -8.84221 6.69942 43.2893C7.25388 54.3796 22.5953 127.205 40.8935 105.208C47.5816 97.1647 54.0441 90.3639 54.0441 90.3639C57.2534 92.4959 61.0958 93.5837 65.1238 93.1931L65.4368 92.9276C65.3393 93.9261 65.384 94.9029 65.562 96.0593C60.8479 101.326 62.2335 102.251 52.8101 104.191C43.2746 106.156 48.8761 109.654 52.5335 110.569C56.9673 111.677 67.2247 113.248 74.1554 103.546L73.8793 104.653C75.726 106.132 77.0228 114.275 76.8055 121.658C76.5882 129.039 76.4431 134.108 77.8979 138.066C79.354 142.025 80.8041 150.932 93.1924 148.278C103.543 146.059 108.907 140.311 109.654 130.722C110.183 123.905 111.382 124.913 111.457 118.818L112.419 115.933C113.527 106.693 112.595 103.711 118.972 105.098L120.522 105.234C125.215 105.447 131.359 104.479 134.964 102.803C142.728 99.2005 147.333 93.1843 139.677 94.7648H139.678Z" fill="#336791"/>
<path d="M145.453 94.4094C144.787 92.3954 142.643 91.7475 139.082 92.4829C128.506 94.6655 124.719 93.1537 123.476 92.238C131.696 79.7158 138.458 64.5787 142.106 50.456C143.834 43.7662 144.788 37.5532 144.866 32.4892C144.953 26.9311 144.006 22.8467 142.053 20.3517C134.182 10.2934 122.629 4.89804 108.644 4.75003C99.0299 4.64196 90.9069 7.10235 89.3322 7.79424C86.0161 6.96961 82.401 6.46332 78.4652 6.39871C71.2479 6.28183 65.0091 8.0098 59.844 11.5321C57.6003 10.6969 51.8021 8.70639 44.7111 7.564C32.452 5.59052 22.7103 7.0859 15.7585 12.0108C7.46341 17.8878 3.63393 28.393 4.37574 43.234C4.62536 48.2271 7.47046 63.5873 11.9601 78.2974C17.87 97.6586 24.2944 108.619 31.0535 110.874C31.8447 111.138 32.7568 111.322 33.763 111.322C36.2286 111.322 39.2517 110.211 42.3969 106.429C46.2332 101.827 50.2016 97.3369 54.2971 92.9639C56.9543 94.39 59.8734 95.1864 62.8588 95.2663C62.8647 95.3444 62.8723 95.4226 62.8794 95.5001C62.3655 96.1129 61.8623 96.7346 61.3699 97.3649C59.3013 99.9909 58.8708 100.538 52.212 101.909C50.3179 102.3 45.2872 103.336 45.2132 106.863C45.1334 110.716 51.1601 112.334 51.8467 112.505C54.2396 113.105 56.5449 113.4 58.7433 113.4C64.0899 113.4 68.7951 111.643 72.5553 108.243C72.4396 121.978 73.0123 135.513 74.6615 139.637C76.0124 143.013 79.3121 151.263 89.7352 151.263C91.2646 151.263 92.9479 151.085 94.7998 150.688C105.678 148.356 110.402 143.548 112.229 132.948C113.207 127.283 114.885 113.756 115.675 106.5C117.34 107.02 119.485 107.258 121.803 107.257C126.638 107.257 132.217 106.23 135.716 104.606C139.647 102.78 146.739 98.3011 145.453 94.4094ZM119.548 45.3778C119.512 47.5199 119.217 49.4646 118.904 51.4945C118.568 53.6776 118.22 55.9348 118.133 58.6747C118.046 61.3413 118.379 64.1136 118.701 66.7948C119.352 72.2101 120.02 77.7852 117.435 83.2863C117.006 82.5254 116.623 81.7391 116.29 80.9316C115.968 80.1528 115.271 78.9017 114.304 77.1702C110.546 70.4299 101.745 54.6456 106.25 48.2047C107.592 46.2876 110.998 44.3165 119.548 45.3778ZM109.184 9.08758C121.715 9.36421 131.627 14.0518 138.645 23.0194C144.027 29.8978 138.1 61.1956 120.942 88.1965C120.769 87.9771 120.596 87.7584 120.422 87.5404L120.204 87.269C124.638 79.9466 123.771 72.7017 122.999 66.2785C122.682 63.6425 122.383 61.1528 122.459 58.8139C122.538 56.3354 122.866 54.2092 123.183 52.1535C123.572 49.6202 123.969 46.9989 123.859 43.9089C123.941 43.5847 123.974 43.2017 123.931 42.7471C123.652 39.784 120.269 30.9157 113.373 22.889C109.602 18.4986 104.101 13.5855 96.5906 10.2717C99.821 9.60209 104.238 8.97774 109.184 9.08758ZM39.0684 103.662C35.6031 107.828 33.2103 107.03 32.4232 106.768C27.2957 105.057 21.3459 94.2197 16.1003 77.034C11.5613 62.1636 8.90887 47.2104 8.6986 43.0173C8.03607 29.7562 11.2506 20.5144 18.2535 15.5478C29.6504 7.46592 48.3878 12.3033 55.917 14.7566C55.8089 14.8635 55.6962 14.9634 55.5893 15.072C43.2339 27.5496 43.527 48.8679 43.5575 50.1712C43.5563 50.6739 43.5986 51.3858 43.6562 52.3649C43.8688 55.9506 44.2647 62.6241 43.2075 70.1814C42.2254 77.2043 44.3904 84.078 49.1461 89.0405C49.6342 89.5488 50.1472 90.0326 50.6832 90.49C48.5664 92.7572 43.9657 97.7708 39.0684 103.662ZM52.2714 86.0456C48.4384 82.0458 46.6975 76.4825 47.4945 70.7805C48.6104 62.7973 48.1987 55.8443 47.9773 52.1088C47.9462 51.5861 47.9185 51.128 47.9027 50.7667C49.7076 49.1662 58.072 44.6848 64.0371 46.0515C66.7588 46.6747 68.4175 48.5284 69.107 51.7165C72.6757 68.2226 69.5792 75.1022 67.0912 80.6309C66.5785 81.7697 66.0939 82.8463 65.6804 83.9599L65.3598 84.821C64.548 86.9977 63.7927 89.0217 63.3246 90.9435C59.2496 90.9317 55.2856 89.1908 52.2714 86.045V86.0456ZM52.8969 108.306C51.7069 108.009 50.6368 107.493 50.0089 107.064C50.5334 106.818 51.4667 106.482 53.0854 106.148C60.9188 104.536 62.1288 103.398 64.7706 100.043C65.3762 99.2738 66.0628 98.4022 67.0137 97.3402L67.0149 97.3391C68.431 95.7532 69.0788 96.0222 70.2535 96.5097C71.2056 96.9033 72.133 98.0967 72.5089 99.41C72.6869 100.03 72.8866 101.207 72.2329 102.124C66.7142 109.851 58.6722 109.751 52.8969 108.306ZM93.893 146.455C84.3098 148.509 80.9168 143.619 78.6807 138.029C77.2376 134.421 76.5281 118.148 77.0315 100.177C77.0379 99.9375 77.0039 99.7067 76.9381 99.4893C76.8792 99.0602 76.7897 98.6358 76.6703 98.2195C75.922 95.6046 74.0983 93.4174 71.9104 92.5105C71.0411 92.1505 69.4459 91.4897 67.5288 91.9801C67.9376 90.2956 68.6465 88.3932 69.4154 86.3334L69.7378 85.4671C70.1008 84.4903 70.5566 83.4783 71.0382 82.407C73.6419 76.6228 77.2077 68.7001 73.3377 50.802C71.8881 44.098 67.0472 40.8242 59.7089 41.5848C55.3097 42.04 51.2846 43.8149 49.2771 44.8328C48.8454 45.0513 48.4507 45.2627 48.0818 45.4683C48.6422 38.7138 50.7589 26.0906 58.6775 18.1039C63.6635 13.0762 70.3034 10.5929 78.3935 10.7269C94.3341 10.9876 104.556 19.1682 110.325 25.9855C115.296 31.8595 117.988 37.777 119.062 40.9687C110.984 40.147 105.489 41.7416 102.704 45.7238C96.6441 54.386 106.019 71.1981 110.524 79.2782C111.351 80.7589 112.064 82.0387 112.288 82.5826C113.755 86.1384 115.655 88.5125 117.041 90.2451C117.467 90.7761 117.879 91.2912 118.193 91.7411C115.746 92.4465 111.351 94.0764 111.751 102.223C111.428 106.311 109.131 125.451 107.964 132.213C106.423 141.146 103.136 144.473 93.893 146.456V146.455ZM133.893 100.68C131.391 101.841 127.204 102.712 123.227 102.899C118.833 103.105 116.597 102.407 116.071 101.978C115.824 96.9009 117.713 96.3705 119.713 95.809C120.027 95.7209 120.334 95.6346 120.63 95.5312C120.814 95.681 121.015 95.8296 121.236 95.9753C124.767 98.3058 131.065 98.5572 139.957 96.7218L140.055 96.7024C138.855 97.8236 136.803 99.3284 133.893 100.68Z" fill="white"/>
<path d="M63.0474 56.5038C61.4734 56.2847 60.0479 56.4873 59.3266 57.0335C58.9213 57.3407 58.7957 57.6967 58.7616 57.9416C58.6711 58.5906 59.1257 59.3083 59.4053 59.6784C60.1959 60.7262 61.3506 61.4463 62.4936 61.6048C62.6592 61.6283 62.8242 61.6389 62.9881 61.6389C64.8941 61.6389 66.6273 60.1547 66.78 59.0593C66.9709 57.6873 64.9792 56.7722 63.0474 56.5038ZM115.194 56.5472C115.044 55.4718 113.13 55.1652 111.314 55.4178C109.501 55.6703 107.742 56.4891 107.889 57.5668C108.006 58.405 109.52 59.8358 111.311 59.8358C111.463 59.8358 111.616 59.8258 111.769 59.804C112.965 59.6384 113.843 58.879 114.26 58.4414C114.894 57.7742 115.262 57.0306 115.194 56.5472Z" fill="white"/>
</svg>
