<svg width="128" height="150" viewBox="0 0 128 150" fill="none" xmlns="http://www.w3.org/2000/svg">
<path opacity="0.44382" d="M63.6843 150C86.4412 150 104.889 146.426 104.889 142.019C104.889 137.611 86.4412 134.038 63.6843 134.038C40.9274 134.038 22.4792 137.611 22.4792 142.019C22.4792 146.426 40.9274 150 63.6843 150Z" fill="url(#paint0_radial_5_124)"/>
<path d="M63.2516 0.00105303C57.9952 0.0254499 52.9754 0.473249 48.5585 1.25395C35.5468 3.55011 33.1844 8.35617 33.1844 17.2194V28.925H63.9325V32.8268H33.1844H21.6449C12.7087 32.8268 4.88383 38.192 2.43632 48.3985C-0.386851 60.0975 -0.512074 67.3978 2.43632 79.6134C4.62201 88.7062 9.84172 95.1851 18.778 95.1851H29.3499V81.1527C29.3499 71.0151 38.131 62.0729 48.5585 62.0729H79.2708C87.82 62.0729 94.6448 55.0416 94.6448 46.4655V17.2194C94.6448 8.89577 87.6151 2.64312 79.2708 1.25395C73.9887 0.37566 68.5081 -0.0233442 63.2516 0.00105303ZM46.6233 9.41564C49.7994 9.41564 52.393 12.0487 52.393 15.2863C52.393 18.5125 49.7994 21.1212 46.6233 21.1212C43.4358 21.1212 40.8535 18.5125 40.8535 15.2863C40.8535 12.0487 43.4358 9.41564 46.6233 9.41564Z" fill="url(#paint1_linear_5_124)"/>
<path d="M98.4794 32.8267V46.4653C98.4794 57.0391 89.5048 65.9388 79.2708 65.9388H48.5585C40.1459 65.9388 33.1844 73.1308 33.1844 81.5463V110.792C33.1844 119.116 40.4305 124.012 48.5585 126.4C58.2916 129.259 67.6252 129.775 79.2708 126.4C87.0117 124.161 94.6448 119.656 94.6448 110.792V99.0868H63.9326V95.1849H94.6448H110.019C118.955 95.1849 122.285 88.9586 125.393 79.6132C128.603 69.9923 128.467 60.7402 125.393 48.3983C123.185 39.5122 118.967 32.8267 110.019 32.8267H98.4794ZM81.206 106.89C84.3934 106.89 86.9757 109.499 86.9757 112.725C86.9757 115.963 84.3934 118.596 81.206 118.596C78.0299 118.596 75.4362 115.963 75.4362 112.725C75.4362 109.499 78.0299 106.89 81.206 106.89Z" fill="url(#paint2_linear_5_124)"/>
<defs>
<radialGradient id="paint0_radial_5_124" cx="0" cy="0" r="1" gradientUnits="userSpaceOnUse" gradientTransform="translate(63.6843 142.019) rotate(-90) scale(7.98108 35.1194)">
<stop stop-color="#B8B8B8" stop-opacity="0.498039"/>
<stop offset="1" stop-color="#7F7F7F" stop-opacity="0"/>
</radialGradient>
<linearGradient id="paint1_linear_5_124" x1="0.271728" y1="-3.32237e-07" x2="71.1068" y2="60.4288" gradientUnits="userSpaceOnUse">
<stop stop-color="#5A9FD4"/>
<stop offset="1" stop-color="#306998"/>
</linearGradient>
<linearGradient id="paint2_linear_5_124" x1="80.4671" y1="111.741" x2="55.0679" y2="76.1096" gradientUnits="userSpaceOnUse">
<stop stop-color="#FFD43B"/>
<stop offset="1" stop-color="#FFE873"/>
</linearGradient>
</defs>
</svg>
