<svg width="74" height="73" viewBox="0 0 74 73" fill="none" xmlns="http://www.w3.org/2000/svg">
<path d="M37 0C29.781 0 22.7241 2.14069 16.7217 6.15136C10.7193 10.162 6.04101 15.8625 3.27841 22.532C0.515815 29.2016 -0.207007 36.5405 1.20135 43.6208C2.60971 50.7011 6.086 57.2048 11.1906 62.3094C16.2952 67.414 22.7989 70.8903 29.8792 72.2986C36.9595 73.707 44.2985 72.9842 50.968 70.2216C57.6375 67.459 63.338 62.7807 67.3486 56.7783C71.3593 50.7759 73.5 43.719 73.5 36.5C73.5 26.8196 69.6545 17.5357 62.8094 10.6906C55.9643 3.84552 46.6804 0 37 0ZM37 68.4375C30.6834 68.4375 24.5086 66.5644 19.2565 63.055C14.0044 59.5457 9.91088 54.5578 7.49361 48.7219C5.07634 42.8861 4.44387 36.4646 5.67619 30.2693C6.9085 24.074 9.95025 18.3833 14.4168 13.9168C18.8833 9.45024 24.574 6.40848 30.7693 5.17617C36.9646 3.94385 43.3861 4.57632 49.222 6.9936C55.0578 9.41087 60.0457 13.5044 63.5551 18.7565C67.0644 24.0086 68.9375 30.1834 68.9375 36.5C68.9375 44.9703 65.5727 53.0938 59.5832 59.0832C53.5938 65.0726 45.4704 68.4375 37 68.4375Z" fill="#878787"/>
<path d="M39.2813 53.8147V11.4062H34.7188V53.8147L22.651 41.7241L19.4116 44.9634L35.3804 60.9322C35.8078 61.3571 36.386 61.5956 36.9886 61.5956C37.5913 61.5956 38.1695 61.3571 38.5969 60.9322L54.5657 44.9634L51.3491 41.7469L39.2813 53.8147Z" fill="#878787"/>
</svg>
