<svg xmlns="http://www.w3.org/2000/svg" fill="none" viewBox="0 0 74 73">
    <path fill="#CACACA"
          d="M37 0c-7.219 0-14.2759 2.14069-20.2783 6.15136C10.7193 10.162 6.04101 15.8625 3.27841 22.532.515815 29.2016-.207007 36.5405 1.20135 43.6208c1.40836 7.0803 4.88465 13.584 9.98925 18.6886 5.1046 5.1046 11.6083 8.5809 18.6886 9.9892 7.0803 1.4084 14.4193.6856 21.0888-2.077 6.6695-2.7626 12.37-7.4409 16.3806-13.4433C71.3593 50.7759 73.5 43.719 73.5 36.5c0-9.6804-3.8455-18.9643-10.6906-25.8094C55.9643 3.84552 46.6804 0 37 0Zm0 68.4375c-6.3166 0-12.4914-1.8731-17.7435-5.3825-5.2521-3.5093-9.34562-8.4972-11.76289-14.3331-2.41727-5.8358-3.04974-12.2573-1.81742-18.4526 1.23231-6.1953 4.27406-11.886 8.74061-16.3525 4.4665-4.46656 10.1572-7.50832 16.3525-8.74063 6.1953-1.23232 12.6168-.59985 18.4527 1.81743 5.8358 2.41727 10.8237 6.5108 14.3331 11.7629 3.5093 5.2521 5.3824 11.4269 5.3824 17.7435 0 8.4703-3.3648 16.5938-9.3543 22.5832C53.5938 65.0726 45.4704 68.4375 37 68.4375Z"/>
    <path fill="#CACACA"
          d="M39.2812 53.8147V11.4062h-4.5625v42.4085L22.6509 41.7241l-3.2394 3.2393 15.9687 15.9688c.4275.4249 1.0057.6634 1.6083.6634.6027 0 1.1809-.2385 1.6083-.6634l15.9688-15.9688-3.2166-3.2165-12.0678 12.0678Z"/>
</svg>