<svg width="150" height="122" viewBox="0 0 150 122" fill="none" xmlns="http://www.w3.org/2000/svg">
<path d="M101.696 38.9785L85.1306 44.3877L70.719 50.7483L66.6871 51.8127C65.6603 52.7894 64.5836 53.7787 63.4191 54.7803C62.142 55.8821 60.9525 56.8839 60.0383 57.61C59.0242 58.4114 57.5217 59.9139 56.7579 60.8653C55.6185 62.2927 54.717 63.8077 54.3288 64.9723C53.6401 67.0759 53.9783 69.2044 55.3055 71.1704C57.0083 73.6744 60.4016 76.2286 64.3581 77.9691C66.3741 78.8583 69.7673 79.9976 72.3215 80.636C76.566 81.7129 84.7799 82.8774 89.2999 83.0528C90.2138 83.0904 91.441 83.0904 91.4909 83.0528C91.5912 82.99 92.2924 81.6504 93.1064 79.9852C95.8861 74.313 97.8894 68.9916 98.9787 64.4465C99.6297 61.692 100.143 58.0233 100.481 53.6787C100.569 52.4641 100.606 48.3947 100.531 47.0173C100.418 44.7636 100.218 42.9356 99.9052 41.1451C99.8551 40.8821 99.8424 40.6441 99.8675 40.6316C99.9175 40.5941 100.068 40.5441 102.109 39.9554L101.696 38.9789V38.9786H101.696V38.9785ZM97.9146 41.1949C98.0648 41.1949 98.4654 45.0387 98.5655 47.468C98.5906 47.9813 98.5779 48.3194 98.553 48.3194C98.4529 48.3194 96.4369 47.13 94.9972 46.2285C93.7451 45.4396 91.3662 43.8619 90.9906 43.5614C90.8651 43.4738 90.8776 43.4614 91.9045 43.1107C93.6447 42.5221 97.7769 41.1949 97.9146 41.1949ZM89.4754 43.9746C89.5881 43.9746 89.8759 44.1372 90.5646 44.563C93.1439 46.1782 96.6499 48.1316 98.1524 48.7828C98.6156 48.9831 98.6655 48.9078 97.6015 49.6342C95.3226 51.1868 92.4802 52.7142 88.9993 54.2544C88.3859 54.5298 87.8726 54.7426 87.8601 54.7426C87.8352 54.7426 87.9101 54.4298 88.0101 54.0541C88.8491 50.9361 89.325 47.7809 89.3501 45.2516C89.3626 43.9994 89.3626 43.9994 89.4754 43.9621C89.4502 43.9746 89.4627 43.9746 89.4754 43.9746ZM87.735 44.6382C87.8099 44.7132 87.7599 47.518 87.6597 48.2817C87.4344 50.1099 87.0838 51.8126 86.508 53.7285C86.3702 54.1915 86.2448 54.5799 86.22 54.6048C86.1697 54.6674 84.4543 52.9896 83.8909 52.3385C82.9142 51.2116 82.1506 50.0847 81.5871 48.9829C81.2991 48.4194 80.8485 47.3177 80.8859 47.2801C81.0862 47.1424 87.6849 44.5882 87.735 44.6382ZM79.5461 47.856C79.5586 47.856 79.571 47.856 79.5838 47.8685C79.6087 47.8935 79.6965 48.094 79.7716 48.3193C80.1722 49.4086 81.0735 51.0113 81.8501 52.0381C82.7015 53.165 83.816 54.3669 84.7423 55.1557C85.0429 55.4061 85.3182 55.644 85.3557 55.6816C85.431 55.7568 85.456 55.7442 83.415 56.5206C81.0488 57.422 78.4693 58.3235 75.5142 59.2751C74.8084 59.5027 74.1031 59.7322 73.3985 59.9638C73.2856 60.0014 73.3233 59.9387 73.6488 59.4255C75.1137 57.134 77.3424 52.6391 78.5946 49.4587C78.8074 48.9077 79.0203 48.3569 79.0579 48.2317C79.108 48.0563 79.1705 47.9937 79.3332 47.906C79.4209 47.8812 79.5086 47.856 79.5461 47.856ZM77.0421 48.8953C77.0796 48.9204 76.441 50.26 75.8149 51.4871C74.6003 53.8535 73.2732 56.1826 71.4952 59.0123C71.1947 59.5005 70.9068 59.9514 70.8692 60.0015C70.8067 60.0892 70.7815 60.064 70.5812 59.676C70.1555 58.837 69.8048 57.7601 69.617 56.7709C69.4291 55.7942 69.4668 54.0915 69.6797 53.0398C69.8423 52.2635 69.8299 52.2761 70.2055 52.0882C71.8082 51.2743 76.992 48.8452 77.0421 48.8953ZM98.6408 49.7719V50.2977C98.6408 53.0899 98.3403 56.9213 97.9019 59.7136C97.8268 60.2018 97.7639 60.6024 97.7516 60.6151C97.7516 60.6151 97.3886 60.515 96.9629 60.3896C95.0848 59.8011 93.0438 58.9371 91.2032 57.9231C89.9884 57.2595 88.2231 56.17 88.2733 56.1199C88.2856 56.1074 88.8116 55.832 89.425 55.5064C91.8795 54.2293 94.2332 52.852 96.2742 51.4872C97.038 50.9738 98.1897 50.1476 98.4404 49.9221L98.6408 49.7719ZM67.5886 53.4778C67.6386 53.4778 67.6261 53.578 67.551 54.0288C67.5009 54.3544 67.4383 54.9554 67.4135 55.3684C67.313 57.1966 67.6137 58.5489 68.5152 60.402C68.7656 60.9154 68.9661 61.3411 68.9534 61.3535C68.8657 61.4287 60.577 63.8579 57.9724 64.5715C57.1962 64.7843 56.5202 64.9722 56.4698 64.9845C56.3823 65.0097 56.3698 64.9972 56.4073 64.7842C56.6952 62.9438 58.0977 60.5397 60.0509 58.5112C61.3531 57.159 62.3924 56.3702 64.1704 55.3559C65.4475 54.6298 67.4133 53.5406 67.5635 53.4904C67.5636 53.4778 67.5761 53.4778 67.5886 53.4778ZM87.1214 56.9712C87.1339 56.9588 87.4344 57.1216 87.7974 57.3344C90.477 58.8871 94.2082 60.327 97.3883 61.0657L97.6765 61.1284L97.2758 61.3535C95.6106 62.2802 90.1389 64.5589 84.5421 66.65C83.7281 66.9504 82.9268 67.251 82.7764 67.3136C82.6261 67.3761 82.4884 67.4137 82.4884 67.4013C82.4884 67.3886 82.7139 66.9504 83.0017 66.4121C84.5668 63.4822 86.1446 59.9137 86.9459 57.4345C87.0463 57.1966 87.1087 56.9839 87.1214 56.9712ZM85.1306 57.6224C85.1433 57.6352 85.043 57.8979 84.9177 58.1983C83.8284 60.8403 82.4008 63.7203 80.5729 66.9506C80.1097 67.7771 79.7215 68.4407 79.7088 68.4407C79.6965 68.4407 79.3207 68.2152 78.87 67.9398C76.2154 66.312 73.8615 64.3087 72.3216 62.3679L72.0961 62.0924L73.2354 61.7794C77.3173 60.6651 80.7855 59.4631 84.2289 57.9857C84.7173 57.7853 85.1181 57.6224 85.1306 57.6224ZM97.5013 61.9422C97.5138 62.2302 96.8752 64.8095 96.3493 66.675C95.9111 68.2401 95.5353 69.4673 94.8468 71.6332C94.5463 72.5851 94.2835 73.3737 94.2708 73.3737C94.2584 73.3737 94.1833 73.3612 94.1081 73.3363C90.3894 72.66 87.0588 71.721 83.9286 70.4689C83.052 70.1182 81.7999 69.5548 81.7248 69.4922C81.6999 69.4669 82.4512 69.1166 83.4027 68.7033C89.0998 66.2117 95.0097 63.3819 97.038 62.1675C97.2758 62.0172 97.4637 61.9422 97.5013 61.9422ZM68.9409 62.9189C68.966 62.9438 67.3758 65.2352 65.147 68.3529C64.3707 69.4423 63.4692 70.7194 63.1312 71.1951C62.7931 71.671 62.2798 72.4223 61.9918 72.873L61.4657 73.6869L60.9022 73.2111C60.2386 72.6601 59.0868 71.4832 58.5734 70.8321C57.4965 69.4925 56.7705 68.0776 56.4825 66.788C56.3447 66.1869 56.3447 65.8863 56.4698 65.8489C56.6575 65.7988 60.0007 65.0099 63.1311 64.2836C64.8715 63.8831 66.8873 63.4073 67.6135 63.232C68.3398 63.0564 68.9285 62.9189 68.9409 62.9189ZM70.5435 63.5324L70.9441 63.9831C72.7473 65.999 74.5879 67.4893 76.8166 68.7912C77.2174 69.0167 77.5178 69.2169 77.4926 69.2296C77.4052 69.2922 69.7547 72.009 66.2113 73.2361C64.2205 73.9372 62.5802 74.5006 62.5678 74.5006C62.5553 74.5006 62.4426 74.4256 62.3172 74.3379L62.0919 74.1751L62.455 73.6493C63.6319 71.9464 65.1096 70.0809 68.3275 66.1994L70.5435 63.5324ZM80.5355 70.6818C80.5478 70.6694 81.0987 70.8695 81.7748 71.1202C83.4027 71.7337 84.6922 72.1217 86.4202 72.56C88.5488 73.0985 91.6289 73.6244 93.4446 73.7746C93.7201 73.7995 93.8703 73.8247 93.8202 73.8623C93.7324 73.9124 91.892 74.5259 90.5397 74.9516C88.3859 75.6276 81.8125 77.5684 76.4535 79.1086C75.4644 79.3965 74.6129 79.6344 74.5628 79.6469C74.4378 79.672 74.0244 79.5592 74.0244 79.5091C74.0244 79.4842 74.3249 79.0961 74.6881 78.6703C76.491 76.5167 78.2816 74.1127 79.7716 71.8338C80.1847 71.2076 80.5355 70.6943 80.5355 70.6818ZM78.3316 70.7445C78.344 70.757 77.4551 72.1843 75.9027 74.6384C75.2389 75.6776 74.5002 76.8546 74.2372 77.2678C73.9868 77.6685 73.6112 78.2947 73.3984 78.6451L73.0352 79.2838L72.8474 79.2337C72.3966 79.1084 69.2288 77.994 68.3899 77.656C67.3506 77.2427 66.2738 76.742 65.4724 76.3163C64.4708 75.7778 63.2188 74.9764 63.3189 74.9515C63.3439 74.939 65.0593 74.4756 67.1252 73.9123C72.6094 72.4221 75.6519 71.5582 77.643 70.9322C78.0061 70.8195 78.3191 70.7318 78.3316 70.7445ZM93.9202 74.4005H93.9327C93.9828 74.5258 91.9546 80.1602 91.2155 81.9381C91.053 82.3388 90.9906 82.4391 90.9027 82.4264C90.6899 82.4141 87.7475 82.0008 85.9568 81.7378C82.8393 81.2621 77.6054 80.3479 76.2908 80.0475L75.9903 79.985L77.8557 79.559C81.8625 78.6575 83.7907 78.1693 85.7439 77.5682C88.2107 76.817 90.6524 75.8779 93.1189 74.726C93.507 74.5507 93.8326 74.413 93.9202 74.4005Z" fill="url(#paint0_linear_5_121)"/>
<path d="M84.6173 0.363923C84.3418 0.326565 79.8967 1.92923 77.0295 3.09354C73.1604 4.67137 70.1555 6.17397 68.3023 7.47588C67.6138 7.96441 66.7497 8.82824 66.6121 9.16624C66.5621 9.29148 66.5369 9.44172 66.5369 9.59195L68.2148 11.1821L72.2089 12.4593L81.7124 14.1622L92.5805 16.0278L92.6933 15.0888C92.6558 15.0888 92.6306 15.0763 92.5934 15.0763L91.1656 14.8508L90.8778 14.3375C89.4003 11.7331 87.7726 8.50265 86.821 6.32398C86.0824 4.63361 85.3811 2.68053 84.9929 1.2781C84.78 0.426685 84.7551 0.376625 84.6175 0.364153V0.363864H84.6173V0.363923ZM84.4167 1.00269H84.4295C84.4418 1.01505 84.492 1.36587 84.5421 1.77882C84.7548 3.53201 85.1433 5.22209 85.7567 7.05022C86.2199 8.42759 86.2199 8.35253 85.6816 8.18965C84.4044 7.83917 78.6824 6.84998 74.5379 6.27404C73.8743 6.18633 73.3108 6.09874 73.3108 6.08627C73.2607 6.03621 76.3032 4.4459 77.643 3.82001C79.3584 3.03101 84.0662 1.06522 84.4167 1.00269ZM72.3465 6.61204L72.835 6.77463C75.4893 7.67629 82.1628 8.95347 85.8442 9.25395C86.2573 9.29154 86.608 9.32918 86.6203 9.32918C86.6328 9.34166 86.2824 9.52948 85.8316 9.74225C84.0538 10.6313 82.1004 11.7206 80.7481 12.5596C80.3476 12.8099 79.9843 13.0103 79.9343 13.0103C79.8842 13.0103 79.6214 12.9602 79.3459 12.9226L78.8451 12.8474L77.5931 11.6203C75.3894 9.47931 73.6614 7.82658 72.9978 7.2004L72.3465 6.61204ZM71.8458 7.0001L73.6113 9.20389C74.5753 10.4184 75.5519 11.6079 75.765 11.8707C75.9776 12.1338 76.153 12.3467 76.1406 12.3592C76.0905 12.3967 73.5864 11.9083 72.259 11.608C70.8942 11.2949 70.3308 11.1446 69.4919 10.8818L68.8032 10.6563V10.4809C68.8157 9.64196 69.8801 8.38994 71.6831 7.11293L71.8458 7.0001ZM86.8459 10.0052C86.8961 10.0052 86.9585 10.1178 87.1088 10.4559C87.5345 11.3949 88.8619 13.9243 89.1872 14.4125C89.2876 14.5755 89.4627 14.5879 87.6974 14.2999C83.4529 13.6111 82.0879 13.386 82.0879 13.3609C82.0879 13.3485 82.2132 13.2608 82.3759 13.173C83.6907 12.447 85.0178 11.5203 86.1949 10.5311C86.4829 10.2932 86.7459 10.0678 86.7958 10.0302C86.8083 10.0052 86.8335 9.99272 86.8459 10.0052Z" fill="url(#paint1_linear_5_121)"/>
<path d="M66.6995 8.99072C66.6995 8.99072 66.4242 9.42914 66.6871 10.0803C66.85 10.4808 67.3257 10.969 67.864 11.47C67.864 11.47 73.4359 16.904 74.112 17.6805C77.1921 21.2363 78.5319 24.7422 78.6571 29.5754C78.7323 32.6806 78.1436 35.4102 76.6788 38.578C74.0744 44.2626 68.5776 50.5357 60.1009 57.4974L61.3407 57.0841C62.142 56.483 63.2313 55.8447 65.7855 54.4422C71.6828 51.2116 78.319 48.2442 86.4578 45.1891C98.1771 40.7816 117.447 35.6228 128.415 33.9452L129.555 33.7698L129.38 33.4943C128.378 31.9417 127.689 30.9776 126.863 29.9509C124.459 26.9709 121.542 24.5545 117.973 22.551C113.065 19.8091 106.716 17.668 98.6781 16.0778C97.1631 15.7771 93.8325 15.2013 91.128 14.7881C85.3933 13.8993 81.6871 13.2856 77.6053 12.5845C76.1405 12.3339 73.9491 11.9584 72.4967 11.6454C71.7454 11.4825 70.3057 11.1445 69.1788 10.7564C68.2773 10.4056 66.975 10.055 66.6995 8.99072ZM69.9301 12.1211C69.9425 12.1087 70.1428 12.1836 70.4059 12.2713C70.8817 12.4339 71.4951 12.6218 72.2215 12.8223C72.7711 12.9734 73.322 13.1195 73.8743 13.2605C74.6255 13.4482 75.2515 13.6235 75.2639 13.6235C75.3518 13.7112 76.6164 17.7552 77.0421 19.3079C77.2047 19.8965 77.3301 20.3973 77.3176 20.3973C77.3047 20.41 77.1672 20.197 77.0045 19.909C75.5395 17.3296 73.2231 14.7128 70.5435 12.6092C70.1931 12.359 69.9301 12.1336 69.9301 12.1211ZM76.0904 13.8239C76.1531 13.8239 76.4285 13.8615 76.7664 13.9366C78.895 14.4124 82.714 15.1386 85.1555 15.5518C85.5687 15.6144 85.8944 15.6897 85.8944 15.7146C85.8944 15.7397 85.744 15.8272 85.5561 15.9275C85.1431 16.1403 83.4777 17.1293 82.9269 17.505C81.5369 18.4316 80.285 19.4332 79.3834 20.3347C79.0203 20.6979 78.7071 20.9984 78.7071 20.9984C78.7071 20.9984 78.6323 20.7856 78.5694 20.5225C78.1189 18.7821 77.1797 16.2027 76.3282 14.3872C76.1905 14.0994 76.0777 13.8364 76.0777 13.8114C76.0777 13.8364 76.0777 13.8239 76.0904 13.8239ZM86.9335 15.8899C87.0086 15.9148 87.1339 16.3406 87.3842 17.2796C87.8476 19.0953 88.0605 21.1237 87.9854 23.0143C87.9602 23.5402 87.9352 24.0285 87.9101 24.0912L87.8726 24.2163L87.2215 24.0035C85.8818 23.5778 83.7032 22.9391 81.8376 22.4133C80.7732 22.1253 79.9095 21.8624 79.9095 21.8374C79.9095 21.7621 81.4621 20.2096 82.1256 19.6212C83.39 18.5066 86.8208 15.8523 86.9335 15.8899ZM87.7975 16.015C87.8351 15.9776 92.9812 16.8664 95.3227 17.3172C97.0632 17.6552 99.5924 18.1812 99.7425 18.2439C99.8176 18.2688 99.5546 18.4191 98.7157 18.7946C95.4103 20.2848 92.956 21.6243 90.5147 23.2522C89.8761 23.6779 89.3376 24.0285 89.3251 24.0285C89.3127 24.0285 89.3001 23.6655 89.3001 23.2272C89.3001 20.8482 88.8243 18.4442 87.9476 16.4158C87.8601 16.2154 87.7849 16.0277 87.7975 16.015ZM101.107 18.6445C101.145 18.6821 100.982 19.6964 100.832 20.2972C100.381 22.1629 99.1666 24.9302 97.6767 27.5344C97.4136 27.9977 97.1757 28.3734 97.1505 28.3859C97.1257 28.3983 96.7876 28.2104 96.3994 27.9851C94.947 27.1337 93.2943 26.3324 91.4912 25.581C90.9905 25.3682 90.5521 25.1928 90.5396 25.168C90.4518 25.0928 94.4837 22.4258 96.6123 21.1487C98.3026 20.122 101.057 18.5943 101.107 18.6445ZM102.059 18.7947C102.172 18.7947 104.45 19.4208 105.64 19.7714C108.582 20.648 111.963 21.8874 114.167 22.8891L115.08 23.3024L114.442 23.4526C109.058 24.6921 104.45 26.1197 100.005 27.9226C99.6422 28.0729 99.3166 28.1981 99.2919 28.1981C99.2667 28.1981 99.3919 27.9101 99.5547 27.5594C100.894 24.7172 101.758 21.7497 101.971 19.2204C101.984 18.9824 102.021 18.7947 102.059 18.7947ZM79.3709 24.0035C79.4084 23.9659 81.1489 24.3792 82.0879 24.6419C83.5153 25.0427 86.5453 26.0568 86.5453 26.132C86.5453 26.1445 86.2073 26.4325 85.8068 26.7832C84.1665 28.148 82.5888 29.5877 80.698 31.4158C80.1345 31.9544 79.6589 32.3926 79.6339 32.3926C79.6087 32.3926 79.5964 32.3173 79.6087 32.2172C79.8967 30.1136 79.8343 27.4091 79.4336 24.6671C79.3959 24.3163 79.3584 24.016 79.3709 24.0035ZM115.945 24.0412C115.97 24.066 115.143 25.3682 114.617 26.1069C113.866 27.1837 112.764 28.6113 110.272 31.7415C108.958 33.3941 107.48 35.2599 106.992 35.8859C106.491 36.5119 106.078 37.0377 106.065 37.0377C106.053 37.0377 105.89 36.8125 105.715 36.5371C104.313 34.4334 102.635 32.5928 100.644 30.9401C100.268 30.627 99.8552 30.2889 99.7175 30.1888C99.5797 30.0886 99.4669 29.9885 99.4669 29.976C99.4669 29.9385 101.595 29.0243 103.211 28.3733C106.041 27.2213 109.897 25.8441 112.789 24.955C114.304 24.4793 115.92 24.016 115.945 24.0412ZM116.909 24.2914C116.959 24.279 117.259 24.4292 117.622 24.6419C120.665 26.3823 123.645 28.6237 125.999 30.9276C126.663 31.5788 128.303 33.2816 128.278 33.2941C128.278 33.2941 127.702 33.3441 127.026 33.3941C121.754 33.795 115.006 34.9092 108.52 36.4742C108.082 36.5743 107.693 36.662 107.668 36.662C107.644 36.662 108.132 36.1738 108.745 35.5853C112.552 31.9167 114.292 29.6003 116.345 25.4683C116.633 24.8549 116.884 24.3291 116.909 24.2914C116.896 24.2914 116.896 24.2914 116.909 24.2914ZM89.0245 27.1464C89.1999 27.1837 90.8276 27.9478 92.0546 28.5611C93.1815 29.1244 94.872 30.0261 94.9595 30.1011C94.972 30.1136 94.3709 30.4266 93.6325 30.7898C91.2783 31.9668 89.2625 33.081 87.1589 34.3582C86.5579 34.7214 86.0571 35.022 86.0446 35.022C85.9945 35.022 86.007 34.9717 86.3451 34.3582C87.4721 32.305 88.3734 29.8508 88.887 27.4592C88.9368 27.2714 88.987 27.1464 89.0245 27.1464ZM87.3967 27.4467C87.4343 27.4844 87.0086 29.0243 86.7458 29.8633C86.2323 31.4535 85.3684 33.4443 84.5296 34.9468C84.329 35.2972 84.0286 35.8106 83.8658 36.0986L83.5529 36.5994L82.8517 35.9235C82.0379 35.1346 81.3742 34.6463 80.5229 34.2079C80.1846 34.0328 79.9218 33.8824 79.9218 33.8575C79.9218 33.7573 82.0629 31.8166 83.7031 30.4142C84.88 29.4 87.3592 27.4092 87.3967 27.4467ZM97.3512 31.5412L97.9647 31.9417C99.3668 32.8559 101.019 34.0703 102.284 35.1346C102.998 35.7229 104.375 36.9627 104.651 37.2632L104.801 37.4261L103.787 37.714C98.0522 39.304 93.6198 40.7189 88.4485 42.6222C87.8726 42.835 87.3842 43.0103 87.3466 43.0103C87.2717 43.0103 87.2089 43.0728 88.4987 41.8833C91.8043 38.841 94.7341 35.4851 96.9128 32.2171L97.3512 31.5412ZM94.7342 32.1922C94.7591 32.2172 93.0438 34.6337 92.017 35.9985C90.79 37.6263 88.6112 40.3558 87.1088 42.1336C86.4829 42.8725 85.9446 43.486 85.9194 43.4986C85.8818 43.5111 85.8693 43.3233 85.8693 43.0353C85.8693 41.5201 85.4812 39.9049 84.805 38.5277C84.517 37.9518 84.4668 37.814 84.5297 37.7515C84.7675 37.5385 88.4111 35.46 90.7149 34.2206C92.2675 33.3942 94.6963 32.1672 94.7342 32.1922ZM78.9075 36.0738C78.9451 36.0738 79.2332 36.2239 79.5587 36.3993C80.36 36.8375 81.0738 37.3258 81.7123 37.8518C81.7372 37.8767 81.4118 38.1398 80.9861 38.4526C79.7966 39.304 77.9936 40.6689 76.942 41.5079C75.8399 42.3843 75.8026 42.4093 75.9276 42.2216C76.7541 40.9569 77.1671 40.2432 77.6055 39.3293C77.9936 38.5155 78.3817 37.5513 78.6571 36.7123C78.7573 36.3492 78.8826 36.0738 78.9075 36.0738ZM83.1272 39.3792C83.1897 39.3668 83.265 39.4794 83.6029 39.9803C84.3166 41.0444 84.8676 42.472 85.0055 43.6239L85.0303 43.8744L83.3151 44.5381C80.2473 45.7274 77.4177 46.9045 75.5018 47.7808C74.9635 48.0313 74.0244 48.482 73.411 48.7827C72.7974 49.0955 72.2966 49.3335 72.2966 49.321C72.2966 49.3085 72.6846 49.0205 73.1604 48.6698C76.9044 45.9529 80.1472 42.9728 82.5762 39.9929C82.8392 39.6797 83.0772 39.3917 83.1021 39.3793L83.1272 39.3792ZM81.1865 39.8551C81.2366 39.9051 79.8093 41.5203 78.8326 42.5094C76.4161 44.9762 74.0245 46.9045 71.057 48.7827C70.6814 49.0205 70.3434 49.2333 70.3057 49.2585C70.218 49.3085 70.3307 49.1832 71.6329 47.7683C72.4594 46.8793 73.0853 46.1281 73.799 45.2017C74.2748 44.5882 74.3625 44.5005 75.0513 44.012C76.8919 42.6848 81.1364 39.8049 81.1865 39.8551Z" fill="url(#paint2_radial_5_121)"/>
<path d="M26.9666 91.7007C26.7356 91.7007 26.5045 91.7227 26.2756 91.7227C21.6103 91.9713 18.4638 94.0244 16.6241 98.0339C15.0506 101.66 15.2224 106.4 16.6417 110.048C18.2922 113.613 20.9592 115.495 25.4108 116.205C26.3526 116.36 26.9842 116.877 28.8084 119.007L31.053 121.637H35.124L32.4171 118.908C30.9207 117.411 29.7104 116.109 29.7104 115.994C29.7104 115.88 30.2829 115.629 30.9757 115.418C33.2599 114.726 35.1568 112.962 36.4837 110.257C37.5576 108.086 37.7117 107.414 37.8657 104.712C38.2684 96.6693 34.0279 91.6409 26.9664 91.6983L26.9666 91.7007ZM30.5357 112.733C28.5553 113.693 25.6795 113.884 23.8023 113.195C21.8614 112.482 19.9822 110.467 19.137 108.185C18.1974 105.689 18.3316 101.086 19.4055 99.0129C21.1329 95.7122 23.4172 94.1939 26.7553 94.1939C31.7064 94.1939 34.5231 97.2264 34.8906 102.926C35.1811 107.683 33.5879 111.252 30.5379 112.731L30.5357 112.733ZM100.86 98.5707C99.1526 98.5707 97.8455 99.2618 96.9651 100.624L96.2741 101.702V98.8985H93.3189V115.711H96.2722V110.337C96.2722 105.423 96.3335 104.849 97.0202 103.504C97.9665 101.66 99.5947 100.741 101.168 101.181L102.225 101.489V98.5752H100.86V98.5707ZM83.4981 98.4166C82.9192 98.4166 82.3051 98.4937 81.6938 98.628C77.7392 99.6621 75.5101 103.447 75.6465 107.342C75.6465 110.603 76.2801 112.234 77.8538 113.944C81.0776 116.589 83.9932 116.8 87.9277 115.381C88.5989 115.095 89.3294 114.764 89.3294 114.764V112.119L87.9277 112.846C84.7435 114.232 82.3449 114.232 80.4237 112.599C79.1983 111.351 78.659 109.855 78.4105 108.148H90.3262V105.881C90.3262 101.26 87.5448 98.3418 83.4957 98.4166H83.4981ZM78.6788 105.788C78.6788 105.788 79.119 102.906 80.7518 101.775C81.5376 101.22 82.4396 100.952 83.3219 100.952C84.2067 100.952 85.089 101.238 85.8174 101.795C87.3139 102.945 87.5647 105.767 87.5647 105.767H78.679V105.788H78.6788ZM7.43239 102.756C4.22853 100.815 2.80697 99.4156 2.9808 97.7652C3.47802 93.1991 9.12032 93.8307 12.2449 95.5582L12.2671 92.4864C12.2671 92.4864 10.5396 91.7382 8.06397 91.6985C4.26587 91.6413 1.81008 92.8867 0.659362 95.4217C-1.0308 99.1626 0.465749 101.984 5.87475 105.131C8.91138 106.897 10.2536 108.431 10.2536 110.104C10.2536 113.559 6.08805 114.764 1.7905 112.597C0.906047 112.157 0.157773 111.789 0.118198 111.789C-0.0359418 112.769 0.0435128 115.112 0.0435128 115.112C0.0435128 115.112 1.3639 115.667 3.34418 116.049C8.25555 117.028 12.725 114.725 13.1474 110.984C13.515 107.472 12.245 105.63 7.43259 102.754L7.43239 102.756ZM127.016 98.3771C126.439 98.3771 125.827 98.4562 125.189 98.5905C121.239 99.6247 119.014 103.41 119.166 107.305C119.166 110.562 119.798 112.177 121.371 113.884C124.595 116.532 127.511 116.745 131.465 115.323C132.134 115.038 132.862 114.712 132.862 114.712V112.063L131.463 112.793C128.272 114.175 125.873 114.175 123.959 112.542C122.727 111.297 122.192 109.818 121.943 108.09H133.839V105.824C133.839 101.225 131.058 98.3046 127.009 98.3818L127.016 98.3771ZM122.196 105.749C122.196 105.749 122.641 102.87 124.271 101.717C125.055 101.161 125.957 100.892 126.839 100.892C127.72 100.892 128.607 101.178 129.335 101.737C130.831 102.888 131.082 105.729 131.082 105.729H122.199L122.196 105.749ZM68.0283 102.794C64.8244 100.857 63.4071 99.453 63.5788 97.8025C64.076 93.2342 69.7184 93.8681 72.843 95.5956L72.8652 92.5237C72.8652 92.5237 71.1377 91.7755 68.662 91.7401C64.8639 91.683 62.4081 92.9285 61.2553 95.4634C59.5674 99.2042 61.0836 102.025 66.4748 105.172C69.5073 106.937 70.8495 108.451 70.8495 110.123C70.8495 113.578 66.6861 114.804 62.3884 112.617C61.5082 112.176 60.7602 111.813 60.7161 111.813C60.562 112.792 60.6414 115.136 60.6414 115.136C60.6414 115.136 61.9462 115.671 63.9201 116.073C68.836 117.055 73.3075 114.753 73.7279 111.012C74.0932 107.518 72.8257 105.676 68.0284 102.798V102.794H68.0283ZM144.38 98.5311C142.672 98.5311 141.35 99.2241 140.485 100.586L139.794 101.66V98.8612H136.839V115.669H139.792V110.295C139.792 105.384 139.851 104.807 140.54 103.465C141.486 101.623 143.114 100.701 144.688 101.143L145.744 101.451V98.5312L144.38 98.5311ZM44.5267 102.697V91.9888H41.5474V115.706H54.0772V112.905H44.5269V102.697H44.5267ZM113.43 106.035L110.974 112.425L108.612 106L106.214 98.8788H103.164C105.14 104.481 107.29 110.181 109.458 115.706C110.397 115.728 111.339 115.706 112.278 115.706L115.595 107.379L118.973 98.8809H116.057C116.057 98.8809 114.77 102.257 113.427 106.037L113.43 106.035ZM51.3923 85.5258C51.8721 85.5258 52.2725 85.372 52.6026 85.0419C52.9281 84.7161 53.0998 84.3332 53.0998 83.8535C53.0998 83.3738 52.9281 82.9732 52.6026 82.6652C52.2725 82.3572 51.8918 82.2029 51.4142 82.2029C50.9303 82.2029 50.5297 82.3572 50.2039 82.6827C49.874 83.0085 49.7243 83.4091 49.7243 83.8712C49.7243 84.3553 49.8784 84.7556 50.2039 85.0596C50.5121 85.3674 50.9127 85.5216 51.3923 85.5216V85.5258ZM50.3362 82.7973C50.6221 82.5113 50.9699 82.3791 51.4143 82.3791C51.8325 82.3791 52.1803 82.5113 52.4708 82.7973C52.7569 83.0833 52.9109 83.431 52.9109 83.8535C52.9109 84.276 52.7569 84.6414 52.4708 84.9273C52.1804 85.2132 51.8325 85.3498 51.4143 85.3498C50.9897 85.3498 50.6441 85.2178 50.3582 84.9273C50.0721 84.6414 49.9181 84.276 49.9181 83.8535C49.9181 83.431 50.0501 83.0834 50.3362 82.7973ZM51.0468 84.0077H51.2404C51.377 84.0077 51.5111 84.1396 51.6255 84.3905L51.8568 84.9097H52.2197L51.9338 84.333C51.8172 84.1021 51.7028 83.9679 51.5685 83.9302C51.7379 83.8907 51.8721 83.8335 51.969 83.719C52.0656 83.6201 52.1009 83.4858 52.1009 83.3339C52.1009 83.1579 52.0459 83.026 51.9294 82.9291C51.7973 82.8191 51.586 82.7597 51.3131 82.7597H50.7016V84.9097H51.0096V84.0075L51.0468 84.0077ZM51.0468 83.0085H51.3154C51.509 83.0085 51.6455 83.0481 51.7203 83.1053C51.7929 83.1625 51.8127 83.2375 51.8127 83.3738C51.8127 83.6224 51.6585 83.7392 51.3726 83.7392H51.0426V83.0085H51.0468ZM1.82977 83.8161C1.82977 83.0679 1.80785 82.5113 1.7902 82.1834H1.80785C1.88477 82.5704 1.97945 82.8589 2.05647 83.0503L4.91704 89.4406H5.39681L8.25738 82.9931C8.3346 82.8173 8.41162 82.553 8.50619 82.1855H8.52811C8.47098 82.8238 8.45119 83.3782 8.45119 83.8205V89.4605H9.43022V81.0765H8.20238L5.57287 86.9078C5.47596 87.1388 5.34171 87.4845 5.17011 87.9421H5.13034C5.0732 87.7155 4.93895 87.3699 4.74757 86.9474L2.17722 81.0565H0.872459V89.4404H1.81425V83.8202L1.82977 83.8161ZM11.5759 83.8317H12.4211V89.0534H11.5759V83.8317ZM11.9984 81.9171C12.1746 81.9171 12.3242 81.8575 12.4385 81.7411C12.5552 81.6266 12.6324 81.477 12.6324 81.301C12.6324 81.1293 12.575 80.9752 12.4409 80.8609C12.322 80.7442 12.1701 80.6847 11.9963 80.6847C11.8248 80.6847 11.6708 80.7442 11.5561 80.8609C11.4398 80.9752 11.3626 81.1293 11.3626 81.301C11.3626 81.4925 11.4221 81.6266 11.5561 81.7411C11.6884 81.8575 11.8247 81.9171 11.9963 81.9171H11.9984ZM18.4461 89.168V88.248C17.9839 88.5935 17.4866 88.7653 16.9717 88.7653C16.3558 88.7653 15.856 88.5541 15.4907 88.1494C15.1277 87.7488 14.9341 87.1918 14.9341 86.4988C14.9341 85.7726 15.1277 85.1958 15.5281 84.7557C15.9132 84.3333 16.4129 84.122 17.0247 84.122C17.5241 84.122 18.0036 84.2763 18.4462 84.5845V83.6052C18.0436 83.3939 17.5837 83.297 17.0643 83.297C16.1047 83.297 15.3567 83.6052 14.7978 84.1996C14.2432 84.7936 13.9571 85.6012 13.9571 86.5761C13.9571 87.443 14.2057 88.1715 14.723 88.7283C15.2621 89.3003 15.9511 89.5908 16.796 89.5908C17.4493 89.5727 17.9839 89.4363 18.4461 89.168ZM20.8644 86.3842C20.8644 85.6954 21.0184 85.1388 21.3045 84.7556C21.5731 84.4103 21.8986 84.2365 22.2837 84.2365C22.6094 84.2365 22.8404 84.2959 23.0098 84.4301V83.431C22.8778 83.3739 22.6864 83.3541 22.4377 83.3541C22.0922 83.3541 21.7844 83.4704 21.5136 83.6842C21.2276 83.9106 20.9987 84.2563 20.8645 84.6964H20.8426V83.4706H19.8854V89.456H20.8447V86.3842H20.8644ZM26.3723 89.5749C27.2746 89.5749 28.0008 89.2844 28.5398 88.708C29.0766 88.1356 29.3451 87.3656 29.3451 86.4059C29.3451 85.427 29.0989 84.6787 28.5971 84.1217C28.0998 83.5653 27.4087 83.2965 26.5064 83.2965C25.6041 83.2965 24.8779 83.5651 24.3389 84.0844C23.7624 84.6568 23.4587 85.4643 23.4587 86.5008C23.4587 87.403 23.7052 88.1513 24.2246 88.708C24.7614 89.2844 25.4722 89.5726 26.3723 89.5726V89.5749ZM25.008 84.6985C25.3733 84.3134 25.8532 84.1218 26.4471 84.1218C27.0635 84.1218 27.5255 84.3134 27.8688 84.6985C28.2142 85.1013 28.386 85.6757 28.386 86.4436C28.386 87.174 28.2319 87.7484 27.9061 88.1335C27.5806 88.5363 27.1008 88.7496 26.4669 88.7496C25.8508 88.7496 25.3733 88.5361 25.008 88.1335C24.645 87.7286 24.4711 87.174 24.4711 86.4436C24.4338 85.7174 24.6252 85.1234 25.008 84.6985ZM33.5462 89.0534C33.9114 88.7279 34.1052 88.3273 34.1052 87.8253C34.1052 87.3853 33.951 87.02 33.665 86.7318C33.4316 86.5009 33.071 86.2917 32.5494 86.0804C32.0871 85.887 31.8011 85.7151 31.647 85.5808C31.493 85.4269 31.3984 85.2356 31.3984 84.9648C31.3984 84.7162 31.4953 84.5247 31.6846 84.3706C31.8782 84.2168 32.1247 84.142 32.4548 84.142C32.9719 84.142 33.4142 84.2783 33.8189 84.5667V83.6072C33.4317 83.4137 33.0114 83.3213 32.5316 83.3213C31.9156 83.3213 31.3962 83.4909 31.0132 83.8184C30.6104 84.1444 30.4191 84.5668 30.4191 85.0639C30.4191 85.504 30.5511 85.8694 30.8018 86.1377C31.0131 86.3667 31.3742 86.6 31.8757 86.8089C32.3556 87.0203 32.6812 87.2115 32.8549 87.3655C33.0265 87.5197 33.1035 87.711 33.1035 87.9379C33.1035 88.4966 32.7208 88.7851 31.9725 88.7851C31.3959 88.7851 30.879 88.5957 30.4166 88.213V89.2469C30.8348 89.4981 31.3366 89.6123 31.891 89.6123C32.6019 89.575 33.1584 89.4012 33.5414 89.0556L33.5462 89.0534ZM38.1145 83.2967C37.2121 83.2967 36.486 83.5653 35.9469 84.0846C35.3748 84.657 35.0667 85.4645 35.0667 86.501C35.0667 87.4032 35.3155 88.1515 35.8325 88.7082C36.3716 89.2846 37.0801 89.5728 37.9824 89.5728C38.9066 89.5728 39.6109 89.2825 40.1499 88.7057C40.6891 88.1337 40.9575 87.3635 40.9575 86.404C40.9575 85.4248 40.7066 84.6767 40.2092 84.1199C39.6902 83.5631 38.9989 83.2946 38.1187 83.2946L38.1145 83.2967ZM39.976 86.4437C39.976 87.1741 39.822 87.7485 39.4963 88.1336C39.1706 88.5364 38.6908 88.7497 38.057 88.7497C37.4407 88.7497 36.9633 88.5362 36.5979 88.1336C36.235 87.7287 36.0611 87.1741 36.0611 86.4437C36.0611 85.6735 36.2527 85.0794 36.6378 84.6787C37.0007 84.2959 37.4807 84.1021 38.0769 84.1021C38.671 84.1021 39.1486 84.2957 39.4939 84.6787C39.8021 85.1012 39.9738 85.6756 39.9738 86.4437H39.976ZM42.5684 89.4385H43.5256V84.2564H44.9273V83.4509H43.5255V82.5266C43.5255 81.6862 43.851 81.2637 44.5245 81.2637C44.7512 81.2637 44.9823 81.3208 45.154 81.4177V80.5531C44.9823 80.476 44.7512 80.4585 44.4627 80.4585C43.9457 80.4585 43.5233 80.6126 43.1776 80.9382C42.7749 81.321 42.5616 81.8184 42.5616 82.4919V83.4734H41.5491V84.2787H42.5616V89.4413L42.5684 89.4385ZM46.5005 87.8057C46.5005 88.9765 47.0179 89.5727 48.074 89.5727C48.457 89.5727 48.7452 89.5113 48.9762 89.3748V88.5518C48.8003 88.6839 48.5911 88.7456 48.3602 88.7456C48.0346 88.7456 47.8057 88.6683 47.6713 88.4945C47.5349 88.3231 47.4579 88.0324 47.4579 87.6318V84.2542H48.9761V83.4486H47.4579V81.684C47.1278 81.7984 46.8044 81.8953 46.4984 81.9919V83.4485H45.4642V84.2541H46.4984V87.8035L46.5005 87.8057ZM149.485 98.839C149.159 98.5311 148.774 98.377 148.297 98.377C147.813 98.377 147.412 98.5311 147.087 98.8611C146.761 99.1846 146.607 99.5872 146.607 100.049C146.607 100.529 146.761 100.93 147.084 101.238C147.41 101.546 147.81 101.7 148.295 101.7C148.772 101.7 149.175 101.546 149.505 101.22C149.828 100.89 150 100.509 150 100.032C149.982 99.5478 149.809 99.1472 149.483 98.8392L149.485 98.839ZM149.331 101.106C149.045 101.392 148.697 101.524 148.275 101.524C147.857 101.524 147.509 101.392 147.219 101.106C146.933 100.815 146.778 100.452 146.778 100.027C146.778 99.6092 146.911 99.2617 147.201 98.9712C147.487 98.6854 147.833 98.553 148.275 98.553C148.693 98.553 149.041 98.6854 149.331 98.9712C149.617 99.2617 149.771 99.6092 149.771 100.027C149.771 100.472 149.639 100.815 149.331 101.106ZM148.468 100.126C148.64 100.087 148.777 100.01 148.871 99.9152C148.968 99.8161 149.003 99.6818 149.003 99.5281C149.003 99.3564 148.948 99.2199 148.832 99.1254C148.7 99.0153 148.486 98.9558 148.216 98.9558H147.604V101.103H147.912V100.201H148.104C148.236 100.201 148.368 100.333 148.486 100.584L148.715 101.101H149.081L148.795 100.524C148.696 100.274 148.581 100.159 148.465 100.122L148.468 100.126ZM148.257 99.9329H147.927V99.2069H148.198C148.389 99.2069 148.524 99.2419 148.601 99.3014C148.678 99.3586 148.695 99.4334 148.695 99.5699C148.695 99.8185 148.541 99.9331 148.255 99.9331L148.257 99.9329ZM94.7208 83.2023H94.9893V81.0523H95.6998V80.7838H94.01V81.0523H94.721V83.2023H94.7208ZM96.3491 81.5871C96.3491 81.3779 96.3491 81.2063 96.3337 81.1097C96.3514 81.2239 96.3909 81.3011 96.4086 81.3583L97.2339 83.2023H97.3659L98.1931 81.3405C98.2154 81.2834 98.233 81.2085 98.2703 81.1097C98.2526 81.3011 98.2526 81.4548 98.2526 81.5717V83.2001H98.5388V80.7838H98.1931L97.4452 82.4519C97.4275 82.5114 97.3678 82.6278 97.3306 82.76H97.3086C97.2932 82.6828 97.2537 82.6059 97.1986 82.4741L96.4504 80.784H96.0632V83.2046H96.3337V81.5894L96.3491 81.5871Z" fill="#7B7B7B"/>
<defs>
<linearGradient id="paint0_linear_5_121" x1="66.4437" y1="74.8985" x2="72.4337" y2="71.3591" gradientUnits="userSpaceOnUse">
<stop stop-color="#909CA9"/>
<stop offset="1" stop-color="#EDEDEE"/>
</linearGradient>
<linearGradient id="paint1_linear_5_121" x1="66.5808" y1="8.17139" x2="71.4005" y2="8.17139" gradientUnits="userSpaceOnUse">
<stop stop-color="#939FAB"/>
<stop offset="1" stop-color="#DCDEE1"/>
</linearGradient>
<radialGradient id="paint2_radial_5_121" cx="0" cy="0" r="1" gradientUnits="userSpaceOnUse" gradientTransform="translate(90.9011 30.2759) rotate(-171.457) scale(6.21395 12.431)">
<stop stop-color="#EE352C"/>
<stop offset="1" stop-color="#A91D22"/>
</radialGradient>
</defs>
</svg>
